<svg xmlns="http://www.w3.org/2000/svg" xmlns:xlink="http://www.w3.org/1999/xlink" width="194" zoomAndPan="magnify" viewBox="0 0 145.5 52.499999" height="70" preserveAspectRatio="xMidYMid meet" version="1.0"><defs><g/><clipPath id="fe1fdf3296"><path d="M 1 6 L 34 6 L 34 46 L 1 46 Z M 1 6 " clip-rule="nonzero"/></clipPath><clipPath id="21f556bd24"><path d="M 9.582031 6.210938 L 34.21875 11.78125 L 26.519531 45.839844 L 1.882812 40.269531 Z M 9.582031 6.210938 " clip-rule="nonzero"/></clipPath><clipPath id="a9829f94a4"><path d="M 10 11 L 14 11 L 14 15 L 10 15 Z M 10 11 " clip-rule="nonzero"/></clipPath><clipPath id="585679109f"><path d="M 8.582031 0.210938 L 33.21875 5.78125 L 25.519531 39.839844 L 0.882812 34.269531 Z M 8.582031 0.210938 " clip-rule="nonzero"/></clipPath><clipPath id="3899aebbd8"><path d="M 33.402344 5.824219 L 8.761719 0.253906 L 1.0625 34.3125 L 25.703125 39.882812 Z M 33.402344 5.824219 " clip-rule="nonzero"/></clipPath><clipPath id="864b088ece"><path d="M 23 11 L 26 11 L 26 13 L 23 13 Z M 23 11 " clip-rule="nonzero"/></clipPath><clipPath id="55be52f1aa"><path d="M 8.582031 0.210938 L 33.21875 5.78125 L 25.519531 39.839844 L 0.882812 34.269531 Z M 8.582031 0.210938 " clip-rule="nonzero"/></clipPath><clipPath id="f2ed2de997"><path d="M 33.402344 5.824219 L 8.761719 0.253906 L 1.0625 34.3125 L 25.703125 39.882812 Z M 33.402344 5.824219 " clip-rule="nonzero"/></clipPath><clipPath id="fc4e5e57cc"><path d="M 25 15 L 27 15 L 27 17 L 25 17 Z M 25 15 " clip-rule="nonzero"/></clipPath><clipPath id="aa5a728fa9"><path d="M 8.582031 0.210938 L 33.21875 5.78125 L 25.519531 39.839844 L 0.882812 34.269531 Z M 8.582031 0.210938 " clip-rule="nonzero"/></clipPath><clipPath id="37cb101854"><path d="M 33.402344 5.824219 L 8.761719 0.253906 L 1.0625 34.3125 L 25.703125 39.882812 Z M 33.402344 5.824219 " clip-rule="nonzero"/></clipPath><clipPath id="1073386b36"><path d="M 22 12 L 25 12 L 25 16 L 22 16 Z M 22 12 " clip-rule="nonzero"/></clipPath><clipPath id="e32e720f92"><path d="M 8.582031 0.210938 L 33.21875 5.78125 L 25.519531 39.839844 L 0.882812 34.269531 Z M 8.582031 0.210938 " clip-rule="nonzero"/></clipPath><clipPath id="ef28c2eaf2"><path d="M 33.402344 5.824219 L 8.761719 0.253906 L 1.0625 34.3125 L 25.703125 39.882812 Z M 33.402344 5.824219 " clip-rule="nonzero"/></clipPath><clipPath id="b8187a4591"><path d="M 20 12 L 22 12 L 22 15 L 20 15 Z M 20 12 " clip-rule="nonzero"/></clipPath><clipPath id="e6aaf855db"><path d="M 8.582031 0.210938 L 33.21875 5.78125 L 25.519531 39.839844 L 0.882812 34.269531 Z M 8.582031 0.210938 " clip-rule="nonzero"/></clipPath><clipPath id="caba057365"><path d="M 33.402344 5.824219 L 8.761719 0.253906 L 1.0625 34.3125 L 25.703125 39.882812 Z M 33.402344 5.824219 " clip-rule="nonzero"/></clipPath><clipPath id="4f2334296e"><path d="M 18 13 L 21 13 L 21 16 L 18 16 Z M 18 13 " clip-rule="nonzero"/></clipPath><clipPath id="b01ac3607a"><path d="M 8.582031 0.210938 L 33.21875 5.78125 L 25.519531 39.839844 L 0.882812 34.269531 Z M 8.582031 0.210938 " clip-rule="nonzero"/></clipPath><clipPath id="8a0b565b40"><path d="M 33.402344 5.824219 L 8.761719 0.253906 L 1.0625 34.3125 L 25.703125 39.882812 Z M 33.402344 5.824219 " clip-rule="nonzero"/></clipPath><clipPath id="ffc10d7b4e"><path d="M 16 14 L 19 14 L 19 18 L 16 18 Z M 16 14 " clip-rule="nonzero"/></clipPath><clipPath id="bd45870b7e"><path d="M 8.582031 0.210938 L 33.21875 5.78125 L 25.519531 39.839844 L 0.882812 34.269531 Z M 8.582031 0.210938 " clip-rule="nonzero"/></clipPath><clipPath id="6ae3e38466"><path d="M 33.402344 5.824219 L 8.761719 0.253906 L 1.0625 34.3125 L 25.703125 39.882812 Z M 33.402344 5.824219 " clip-rule="nonzero"/></clipPath><clipPath id="05bb71504c"><path d="M 20 10 L 24 10 L 24 13 L 20 13 Z M 20 10 " clip-rule="nonzero"/></clipPath><clipPath id="a23f2f9b71"><path d="M 8.582031 0.210938 L 33.21875 5.78125 L 25.519531 39.839844 L 0.882812 34.269531 Z M 8.582031 0.210938 " clip-rule="nonzero"/></clipPath><clipPath id="a54616cfd9"><path d="M 33.402344 5.824219 L 8.761719 0.253906 L 1.0625 34.3125 L 25.703125 39.882812 Z M 33.402344 5.824219 " clip-rule="nonzero"/></clipPath><clipPath id="63dc7f275d"><path d="M 18 10 L 21 10 L 21 14 L 18 14 Z M 18 10 " clip-rule="nonzero"/></clipPath><clipPath id="eb862fb3e3"><path d="M 8.582031 0.210938 L 33.21875 5.78125 L 25.519531 39.839844 L 0.882812 34.269531 Z M 8.582031 0.210938 " clip-rule="nonzero"/></clipPath><clipPath id="2ea8e27a61"><path d="M 33.402344 5.824219 L 8.761719 0.253906 L 1.0625 34.3125 L 25.703125 39.882812 Z M 33.402344 5.824219 " clip-rule="nonzero"/></clipPath><clipPath id="2520254a3c"><path d="M 17 13 L 19 13 L 19 15 L 17 15 Z M 17 13 " clip-rule="nonzero"/></clipPath><clipPath id="f953b678bb"><path d="M 8.582031 0.210938 L 33.21875 5.78125 L 25.519531 39.839844 L 0.882812 34.269531 Z M 8.582031 0.210938 " clip-rule="nonzero"/></clipPath><clipPath id="946e4a9b82"><path d="M 33.402344 5.824219 L 8.761719 0.253906 L 1.0625 34.3125 L 25.703125 39.882812 Z M 33.402344 5.824219 " clip-rule="nonzero"/></clipPath><clipPath id="af2efd02b2"><path d="M 14 11 L 18 11 L 18 15 L 14 15 Z M 14 11 " clip-rule="nonzero"/></clipPath><clipPath id="0bcf6687be"><path d="M 8.582031 0.210938 L 33.21875 5.78125 L 25.519531 39.839844 L 0.882812 34.269531 Z M 8.582031 0.210938 " clip-rule="nonzero"/></clipPath><clipPath id="56f587d54b"><path d="M 33.402344 5.824219 L 8.761719 0.253906 L 1.0625 34.3125 L 25.703125 39.882812 Z M 33.402344 5.824219 " clip-rule="nonzero"/></clipPath><clipPath id="9989d54252"><path d="M 19 7 L 23 7 L 23 11 L 19 11 Z M 19 7 " clip-rule="nonzero"/></clipPath><clipPath id="08c5a209da"><path d="M 8.582031 0.210938 L 33.21875 5.78125 L 25.519531 39.839844 L 0.882812 34.269531 Z M 8.582031 0.210938 " clip-rule="nonzero"/></clipPath><clipPath id="ffcc138ac2"><path d="M 33.402344 5.824219 L 8.761719 0.253906 L 1.0625 34.3125 L 25.703125 39.882812 Z M 33.402344 5.824219 " clip-rule="nonzero"/></clipPath><clipPath id="6c5cc17b7f"><path d="M 17 9 L 20 9 L 20 11 L 17 11 Z M 17 9 " clip-rule="nonzero"/></clipPath><clipPath id="39245025af"><path d="M 8.582031 0.210938 L 33.21875 5.78125 L 25.519531 39.839844 L 0.882812 34.269531 Z M 8.582031 0.210938 " clip-rule="nonzero"/></clipPath><clipPath id="da86b2d5c2"><path d="M 33.402344 5.824219 L 8.761719 0.253906 L 1.0625 34.3125 L 25.703125 39.882812 Z M 33.402344 5.824219 " clip-rule="nonzero"/></clipPath><clipPath id="adc40b3560"><path d="M 16 10 L 19 10 L 19 12 L 16 12 Z M 16 10 " clip-rule="nonzero"/></clipPath><clipPath id="67ca789601"><path d="M 8.582031 0.210938 L 33.21875 5.78125 L 25.519531 39.839844 L 0.882812 34.269531 Z M 8.582031 0.210938 " clip-rule="nonzero"/></clipPath><clipPath id="39ba9c395f"><path d="M 33.402344 5.824219 L 8.761719 0.253906 L 1.0625 34.3125 L 25.703125 39.882812 Z M 33.402344 5.824219 " clip-rule="nonzero"/></clipPath><clipPath id="456daaf89b"><path d="M 10 9 L 13 9 L 13 12 L 10 12 Z M 10 9 " clip-rule="nonzero"/></clipPath><clipPath id="c9860021c4"><path d="M 8.582031 0.210938 L 33.21875 5.78125 L 25.519531 39.839844 L 0.882812 34.269531 Z M 8.582031 0.210938 " clip-rule="nonzero"/></clipPath><clipPath id="57eababeb2"><path d="M 33.402344 5.824219 L 8.761719 0.253906 L 1.0625 34.3125 L 25.703125 39.882812 Z M 33.402344 5.824219 " clip-rule="nonzero"/></clipPath><clipPath id="941e0c2cb9"><path d="M 12 7 L 15 7 L 15 11 L 12 11 Z M 12 7 " clip-rule="nonzero"/></clipPath><clipPath id="fa0ce46e72"><path d="M 8.582031 0.210938 L 33.21875 5.78125 L 25.519531 39.839844 L 0.882812 34.269531 Z M 8.582031 0.210938 " clip-rule="nonzero"/></clipPath><clipPath id="926f5d1160"><path d="M 33.402344 5.824219 L 8.761719 0.253906 L 1.0625 34.3125 L 25.703125 39.882812 Z M 33.402344 5.824219 " clip-rule="nonzero"/></clipPath><clipPath id="00ea4ea565"><path d="M 15 10 L 17 10 L 17 12 L 15 12 Z M 15 10 " clip-rule="nonzero"/></clipPath><clipPath id="17d49e8176"><path d="M 8.582031 0.210938 L 33.21875 5.78125 L 25.519531 39.839844 L 0.882812 34.269531 Z M 8.582031 0.210938 " clip-rule="nonzero"/></clipPath><clipPath id="1de63e7f1b"><path d="M 33.402344 5.824219 L 8.761719 0.253906 L 1.0625 34.3125 L 25.703125 39.882812 Z M 33.402344 5.824219 " clip-rule="nonzero"/></clipPath><clipPath id="e849c155d6"><path d="M 13 10 L 16 10 L 16 13 L 13 13 Z M 13 10 " clip-rule="nonzero"/></clipPath><clipPath id="2db6ca8832"><path d="M 8.582031 0.210938 L 33.21875 5.78125 L 25.519531 39.839844 L 0.882812 34.269531 Z M 8.582031 0.210938 " clip-rule="nonzero"/></clipPath><clipPath id="931caee446"><path d="M 33.402344 5.824219 L 8.761719 0.253906 L 1.0625 34.3125 L 25.703125 39.882812 Z M 33.402344 5.824219 " clip-rule="nonzero"/></clipPath><clipPath id="a843c8404d"><path d="M 14 9 L 16 9 L 16 11 L 14 11 Z M 14 9 " clip-rule="nonzero"/></clipPath><clipPath id="6334059b0d"><path d="M 8.582031 0.210938 L 33.21875 5.78125 L 25.519531 39.839844 L 0.882812 34.269531 Z M 8.582031 0.210938 " clip-rule="nonzero"/></clipPath><clipPath id="bfe32182ad"><path d="M 33.402344 5.824219 L 8.761719 0.253906 L 1.0625 34.3125 L 25.703125 39.882812 Z M 33.402344 5.824219 " clip-rule="nonzero"/></clipPath><clipPath id="527f5c5955"><path d="M 14 15 L 16 15 L 16 17 L 14 17 Z M 14 15 " clip-rule="nonzero"/></clipPath><clipPath id="7e6d2058dd"><path d="M 8.582031 0.210938 L 33.21875 5.78125 L 25.519531 39.839844 L 0.882812 34.269531 Z M 8.582031 0.210938 " clip-rule="nonzero"/></clipPath><clipPath id="70573cfaba"><path d="M 33.402344 5.824219 L 8.761719 0.253906 L 1.0625 34.3125 L 25.703125 39.882812 Z M 33.402344 5.824219 " clip-rule="nonzero"/></clipPath><clipPath id="5d7905e294"><path d="M 13 9 L 15 9 L 15 11 L 13 11 Z M 13 9 " clip-rule="nonzero"/></clipPath><clipPath id="c8931bf0aa"><path d="M 8.582031 0.210938 L 33.21875 5.78125 L 25.519531 39.839844 L 0.882812 34.269531 Z M 8.582031 0.210938 " clip-rule="nonzero"/></clipPath><clipPath id="522f0e8f96"><path d="M 33.402344 5.824219 L 8.761719 0.253906 L 1.0625 34.3125 L 25.703125 39.882812 Z M 33.402344 5.824219 " clip-rule="nonzero"/></clipPath><clipPath id="6ee53c4f6f"><path d="M 22 9 L 24 9 L 24 11 L 22 11 Z M 22 9 " clip-rule="nonzero"/></clipPath><clipPath id="6cfc389550"><path d="M 8.582031 0.210938 L 33.21875 5.78125 L 25.519531 39.839844 L 0.882812 34.269531 Z M 8.582031 0.210938 " clip-rule="nonzero"/></clipPath><clipPath id="f1533ab92f"><path d="M 33.402344 5.824219 L 8.761719 0.253906 L 1.0625 34.3125 L 25.703125 39.882812 Z M 33.402344 5.824219 " clip-rule="nonzero"/></clipPath><clipPath id="85e048c434"><path d="M 23 10 L 25 10 L 25 11 L 23 11 Z M 23 10 " clip-rule="nonzero"/></clipPath><clipPath id="ba7f28d32e"><path d="M 8.582031 0.210938 L 33.21875 5.78125 L 25.519531 39.839844 L 0.882812 34.269531 Z M 8.582031 0.210938 " clip-rule="nonzero"/></clipPath><clipPath id="c136fd3392"><path d="M 33.402344 5.824219 L 8.761719 0.253906 L 1.0625 34.3125 L 25.703125 39.882812 Z M 33.402344 5.824219 " clip-rule="nonzero"/></clipPath><clipPath id="3bbef13273"><path d="M 21 16 L 25 16 L 25 19 L 21 19 Z M 21 16 " clip-rule="nonzero"/></clipPath><clipPath id="2ae8a60b54"><path d="M 8.582031 0.210938 L 33.21875 5.78125 L 25.519531 39.839844 L 0.882812 34.269531 Z M 8.582031 0.210938 " clip-rule="nonzero"/></clipPath><clipPath id="7f22d56070"><path d="M 33.402344 5.824219 L 8.761719 0.253906 L 1.0625 34.3125 L 25.703125 39.882812 Z M 33.402344 5.824219 " clip-rule="nonzero"/></clipPath><clipPath id="e3aa71a9f4"><path d="M 20 14 L 23 14 L 23 17 L 20 17 Z M 20 14 " clip-rule="nonzero"/></clipPath><clipPath id="b1f1b68582"><path d="M 8.582031 0.210938 L 33.21875 5.78125 L 25.519531 39.839844 L 0.882812 34.269531 Z M 8.582031 0.210938 " clip-rule="nonzero"/></clipPath><clipPath id="4f50a25ec3"><path d="M 33.402344 5.824219 L 8.761719 0.253906 L 1.0625 34.3125 L 25.703125 39.882812 Z M 33.402344 5.824219 " clip-rule="nonzero"/></clipPath><clipPath id="2d5f8afa4e"><path d="M 23 15 L 25 15 L 25 17 L 23 17 Z M 23 15 " clip-rule="nonzero"/></clipPath><clipPath id="61efde5ae8"><path d="M 8.582031 0.210938 L 33.21875 5.78125 L 25.519531 39.839844 L 0.882812 34.269531 Z M 8.582031 0.210938 " clip-rule="nonzero"/></clipPath><clipPath id="8a65d62bf9"><path d="M 33.402344 5.824219 L 8.761719 0.253906 L 1.0625 34.3125 L 25.703125 39.882812 Z M 33.402344 5.824219 " clip-rule="nonzero"/></clipPath><clipPath id="ba7d9f88a7"><path d="M 24 16 L 26 16 L 26 18 L 24 18 Z M 24 16 " clip-rule="nonzero"/></clipPath><clipPath id="cd908edc4c"><path d="M 8.582031 0.210938 L 33.21875 5.78125 L 25.519531 39.839844 L 0.882812 34.269531 Z M 8.582031 0.210938 " clip-rule="nonzero"/></clipPath><clipPath id="72c2f6a7bc"><path d="M 33.402344 5.824219 L 8.761719 0.253906 L 1.0625 34.3125 L 25.703125 39.882812 Z M 33.402344 5.824219 " clip-rule="nonzero"/></clipPath><clipPath id="5899e24214"><path d="M 14 6 L 18 6 L 18 9 L 14 9 Z M 14 6 " clip-rule="nonzero"/></clipPath><clipPath id="ed189ec934"><path d="M 8.582031 0.210938 L 33.21875 5.78125 L 25.519531 39.839844 L 0.882812 34.269531 Z M 8.582031 0.210938 " clip-rule="nonzero"/></clipPath><clipPath id="bb381472da"><path d="M 33.402344 5.824219 L 8.761719 0.253906 L 1.0625 34.3125 L 25.703125 39.882812 Z M 33.402344 5.824219 " clip-rule="nonzero"/></clipPath><clipPath id="955d430cff"><path d="M 17 7 L 20 7 L 20 9 L 17 9 Z M 17 7 " clip-rule="nonzero"/></clipPath><clipPath id="fa2b66020d"><path d="M 8.582031 0.210938 L 33.21875 5.78125 L 25.519531 39.839844 L 0.882812 34.269531 Z M 8.582031 0.210938 " clip-rule="nonzero"/></clipPath><clipPath id="6e68bd2add"><path d="M 33.402344 5.824219 L 8.761719 0.253906 L 1.0625 34.3125 L 25.703125 39.882812 Z M 33.402344 5.824219 " clip-rule="nonzero"/></clipPath><clipPath id="72b5f0984c"><path d="M 16 9 L 18 9 L 18 10 L 16 10 Z M 16 9 " clip-rule="nonzero"/></clipPath><clipPath id="8e857aaa41"><path d="M 8.582031 0.210938 L 33.21875 5.78125 L 25.519531 39.839844 L 0.882812 34.269531 Z M 8.582031 0.210938 " clip-rule="nonzero"/></clipPath><clipPath id="ca4baf55ec"><path d="M 33.402344 5.824219 L 8.761719 0.253906 L 1.0625 34.3125 L 25.703125 39.882812 Z M 33.402344 5.824219 " clip-rule="nonzero"/></clipPath><clipPath id="fc77de8412"><path d="M 18 16 L 22 16 L 22 19 L 18 19 Z M 18 16 " clip-rule="nonzero"/></clipPath><clipPath id="7f4e085bd2"><path d="M 8.582031 0.210938 L 33.21875 5.78125 L 25.519531 39.839844 L 0.882812 34.269531 Z M 8.582031 0.210938 " clip-rule="nonzero"/></clipPath><clipPath id="448546f42e"><path d="M 33.402344 5.824219 L 8.761719 0.253906 L 1.0625 34.3125 L 25.703125 39.882812 Z M 33.402344 5.824219 " clip-rule="nonzero"/></clipPath><clipPath id="96294a3881"><path d="M 20 18 L 22 18 L 22 20 L 20 20 Z M 20 18 " clip-rule="nonzero"/></clipPath><clipPath id="d621d47231"><path d="M 8.582031 0.210938 L 33.21875 5.78125 L 25.519531 39.839844 L 0.882812 34.269531 Z M 8.582031 0.210938 " clip-rule="nonzero"/></clipPath><clipPath id="0c87fc0913"><path d="M 33.402344 5.824219 L 8.761719 0.253906 L 1.0625 34.3125 L 25.703125 39.882812 Z M 33.402344 5.824219 " clip-rule="nonzero"/></clipPath><clipPath id="c7d1f4b3a2"><path d="M 17 17 L 19 17 L 19 19 L 17 19 Z M 17 17 " clip-rule="nonzero"/></clipPath><clipPath id="09eaee41bd"><path d="M 8.582031 0.210938 L 33.21875 5.78125 L 25.519531 39.839844 L 0.882812 34.269531 Z M 8.582031 0.210938 " clip-rule="nonzero"/></clipPath><clipPath id="273767a26b"><path d="M 33.402344 5.824219 L 8.761719 0.253906 L 1.0625 34.3125 L 25.703125 39.882812 Z M 33.402344 5.824219 " clip-rule="nonzero"/></clipPath><clipPath id="34b1225410"><path d="M 22 18 L 26 18 L 26 22 L 22 22 Z M 22 18 " clip-rule="nonzero"/></clipPath><clipPath id="3518e02c33"><path d="M 8.582031 0.210938 L 33.21875 5.78125 L 25.519531 39.839844 L 0.882812 34.269531 Z M 8.582031 0.210938 " clip-rule="nonzero"/></clipPath><clipPath id="57cfa6917d"><path d="M 33.402344 5.824219 L 8.761719 0.253906 L 1.0625 34.3125 L 25.703125 39.882812 Z M 33.402344 5.824219 " clip-rule="nonzero"/></clipPath><clipPath id="400ac4f714"><path d="M 20 18 L 23 18 L 23 21 L 20 21 Z M 20 18 " clip-rule="nonzero"/></clipPath><clipPath id="d3196acec9"><path d="M 8.582031 0.210938 L 33.21875 5.78125 L 25.519531 39.839844 L 0.882812 34.269531 Z M 8.582031 0.210938 " clip-rule="nonzero"/></clipPath><clipPath id="43e0986451"><path d="M 33.402344 5.824219 L 8.761719 0.253906 L 1.0625 34.3125 L 25.703125 39.882812 Z M 33.402344 5.824219 " clip-rule="nonzero"/></clipPath><clipPath id="a0e873fc27"><path d="M 24 14 L 26 14 L 26 16 L 24 16 Z M 24 14 " clip-rule="nonzero"/></clipPath><clipPath id="37c6a9f83a"><path d="M 8.582031 0.210938 L 33.21875 5.78125 L 25.519531 39.839844 L 0.882812 34.269531 Z M 8.582031 0.210938 " clip-rule="nonzero"/></clipPath><clipPath id="85101f1548"><path d="M 33.402344 5.824219 L 8.761719 0.253906 L 1.0625 34.3125 L 25.703125 39.882812 Z M 33.402344 5.824219 " clip-rule="nonzero"/></clipPath><clipPath id="0b0fa48f46"><path d="M 24 17 L 26 17 L 26 20 L 24 20 Z M 24 17 " clip-rule="nonzero"/></clipPath><clipPath id="63454021bb"><path d="M 8.582031 0.210938 L 33.21875 5.78125 L 25.519531 39.839844 L 0.882812 34.269531 Z M 8.582031 0.210938 " clip-rule="nonzero"/></clipPath><clipPath id="5501059e1f"><path d="M 33.402344 5.824219 L 8.761719 0.253906 L 1.0625 34.3125 L 25.703125 39.882812 Z M 33.402344 5.824219 " clip-rule="nonzero"/></clipPath><clipPath id="4ec32d70b7"><path d="M 24 12 L 26 12 L 26 14 L 24 14 Z M 24 12 " clip-rule="nonzero"/></clipPath><clipPath id="65423c9ee4"><path d="M 8.582031 0.210938 L 33.21875 5.78125 L 25.519531 39.839844 L 0.882812 34.269531 Z M 8.582031 0.210938 " clip-rule="nonzero"/></clipPath><clipPath id="c335279689"><path d="M 33.402344 5.824219 L 8.761719 0.253906 L 1.0625 34.3125 L 25.703125 39.882812 Z M 33.402344 5.824219 " clip-rule="nonzero"/></clipPath><clipPath id="2dae46d4b6"><path d="M 19 7 L 21 7 L 21 9 L 19 9 Z M 19 7 " clip-rule="nonzero"/></clipPath><clipPath id="745502c5da"><path d="M 8.582031 0.210938 L 33.21875 5.78125 L 25.519531 39.839844 L 0.882812 34.269531 Z M 8.582031 0.210938 " clip-rule="nonzero"/></clipPath><clipPath id="05fd0cde3a"><path d="M 33.402344 5.824219 L 8.761719 0.253906 L 1.0625 34.3125 L 25.703125 39.882812 Z M 33.402344 5.824219 " clip-rule="nonzero"/></clipPath><clipPath id="875abc5004"><path d="M 12 10 L 14 10 L 14 12 L 12 12 Z M 12 10 " clip-rule="nonzero"/></clipPath><clipPath id="a807c1c35e"><path d="M 8.582031 0.210938 L 33.21875 5.78125 L 25.519531 39.839844 L 0.882812 34.269531 Z M 8.582031 0.210938 " clip-rule="nonzero"/></clipPath><clipPath id="6344a56458"><path d="M 33.402344 5.824219 L 8.761719 0.253906 L 1.0625 34.3125 L 25.703125 39.882812 Z M 33.402344 5.824219 " clip-rule="nonzero"/></clipPath><clipPath id="d154a7fbf0"><path d="M 12 13 L 15 13 L 15 16 L 12 16 Z M 12 13 " clip-rule="nonzero"/></clipPath><clipPath id="a229b08626"><path d="M 8.582031 0.210938 L 33.21875 5.78125 L 25.519531 39.839844 L 0.882812 34.269531 Z M 8.582031 0.210938 " clip-rule="nonzero"/></clipPath><clipPath id="5a2a7adc41"><path d="M 33.402344 5.824219 L 8.761719 0.253906 L 1.0625 34.3125 L 25.703125 39.882812 Z M 33.402344 5.824219 " clip-rule="nonzero"/></clipPath><clipPath id="a34be2f288"><path d="M 15 16 L 16 16 L 16 18 L 15 18 Z M 15 16 " clip-rule="nonzero"/></clipPath><clipPath id="b865f9fdce"><path d="M 8.582031 0.210938 L 33.21875 5.78125 L 25.519531 39.839844 L 0.882812 34.269531 Z M 8.582031 0.210938 " clip-rule="nonzero"/></clipPath><clipPath id="c43ac84458"><path d="M 33.402344 5.824219 L 8.761719 0.253906 L 1.0625 34.3125 L 25.703125 39.882812 Z M 33.402344 5.824219 " clip-rule="nonzero"/></clipPath><clipPath id="1bd8485589"><path d="M 19 18 L 21 18 L 21 20 L 19 20 Z M 19 18 " clip-rule="nonzero"/></clipPath><clipPath id="7b3fb6377a"><path d="M 8.582031 0.210938 L 33.21875 5.78125 L 25.519531 39.839844 L 0.882812 34.269531 Z M 8.582031 0.210938 " clip-rule="nonzero"/></clipPath><clipPath id="1a678098f7"><path d="M 33.402344 5.824219 L 8.761719 0.253906 L 1.0625 34.3125 L 25.703125 39.882812 Z M 33.402344 5.824219 " clip-rule="nonzero"/></clipPath><clipPath id="0ec1ffaf8e"><path d="M 9 11 L 11 11 L 11 12 L 9 12 Z M 9 11 " clip-rule="nonzero"/></clipPath><clipPath id="5437e3af00"><path d="M 8.582031 0.210938 L 33.21875 5.78125 L 25.519531 39.839844 L 0.882812 34.269531 Z M 8.582031 0.210938 " clip-rule="nonzero"/></clipPath><clipPath id="b0227ffff9"><path d="M 33.402344 5.824219 L 8.761719 0.253906 L 1.0625 34.3125 L 25.703125 39.882812 Z M 33.402344 5.824219 " clip-rule="nonzero"/></clipPath><clipPath id="25d93ead73"><path d="M 6 2 L 31 2 L 31 33 L 6 33 Z M 6 2 " clip-rule="nonzero"/></clipPath><clipPath id="851daf9ac6"><path d="M 8.582031 0.210938 L 33.21875 5.78125 L 25.519531 39.839844 L 0.882812 34.269531 Z M 8.582031 0.210938 " clip-rule="nonzero"/></clipPath><clipPath id="4ce14f1590"><path d="M 33.402344 5.824219 L 8.761719 0.253906 L 1.0625 34.3125 L 25.703125 39.882812 Z M 33.402344 5.824219 " clip-rule="nonzero"/></clipPath><clipPath id="55fb8b96e7"><path d="M 9 31 L 19 31 L 19 35 L 9 35 Z M 9 31 " clip-rule="nonzero"/></clipPath><clipPath id="ffde4bee4a"><path d="M 8.582031 0.210938 L 33.21875 5.78125 L 25.519531 39.839844 L 0.882812 34.269531 Z M 8.582031 0.210938 " clip-rule="nonzero"/></clipPath><clipPath id="6b0ec34bb6"><path d="M 33.402344 5.824219 L 8.761719 0.253906 L 1.0625 34.3125 L 25.703125 39.882812 Z M 33.402344 5.824219 " clip-rule="nonzero"/></clipPath><clipPath id="8baf25fea3"><path d="M 9 33 L 17 33 L 17 38 L 9 38 Z M 9 33 " clip-rule="nonzero"/></clipPath><clipPath id="b7129925d8"><path d="M 8.582031 0.210938 L 33.21875 5.78125 L 25.519531 39.839844 L 0.882812 34.269531 Z M 8.582031 0.210938 " clip-rule="nonzero"/></clipPath><clipPath id="4ecbda366a"><path d="M 33.402344 5.824219 L 8.761719 0.253906 L 1.0625 34.3125 L 25.703125 39.882812 Z M 33.402344 5.824219 " clip-rule="nonzero"/></clipPath><clipPath id="41e0076853"><rect x="0" width="33" y="0" height="40"/></clipPath><clipPath id="219bfd2297"><path d="M 30 8 L 144.566406 8 L 144.566406 46 L 30 46 Z M 30 8 " clip-rule="nonzero"/></clipPath><clipPath id="47b7b834c0"><path d="M 0.394531 9 L 14 9 L 14 27 L 0.394531 27 Z M 0.394531 9 " clip-rule="nonzero"/></clipPath><clipPath id="4d8de687cd"><rect x="0" width="115" y="0" height="38"/></clipPath><clipPath id="7c4d0e7e47"><path d="M 124.433594 15.59375 L 129.863281 15.59375 L 129.863281 21.019531 L 124.433594 21.019531 Z M 124.433594 15.59375 " clip-rule="nonzero"/></clipPath><clipPath id="fa469ee9ab"><path d="M 127.148438 15.59375 C 125.648438 15.59375 124.433594 16.808594 124.433594 18.308594 C 124.433594 19.804688 125.648438 21.019531 127.148438 21.019531 C 128.648438 21.019531 129.863281 19.804688 129.863281 18.308594 C 129.863281 16.808594 128.648438 15.59375 127.148438 15.59375 Z M 127.148438 15.59375 " clip-rule="nonzero"/></clipPath><clipPath id="70cc6833a4"><path d="M 0.433594 0.59375 L 5.863281 0.59375 L 5.863281 6.019531 L 0.433594 6.019531 Z M 0.433594 0.59375 " clip-rule="nonzero"/></clipPath><clipPath id="99ba63d165"><path d="M 3.148438 0.59375 C 1.648438 0.59375 0.433594 1.808594 0.433594 3.308594 C 0.433594 4.804688 1.648438 6.019531 3.148438 6.019531 C 4.648438 6.019531 5.863281 4.804688 5.863281 3.308594 C 5.863281 1.808594 4.648438 0.59375 3.148438 0.59375 Z M 3.148438 0.59375 " clip-rule="nonzero"/></clipPath><clipPath id="1f75a4b4d9"><rect x="0" width="6" y="0" height="7"/></clipPath></defs><g clip-path="url(#fe1fdf3296)"><g clip-path="url(#21f556bd24)"><g transform="matrix(1, 0, 0, 1, 1, 6)"><g clip-path="url(#41e0076853)"><g clip-path="url(#a9829f94a4)"><g clip-path="url(#585679109f)"><g clip-path="url(#3899aebbd8)"><path fill="#f37033" d="M 11.75 11.234375 C 11.945312 11.058594 12.222656 11.046875 12.382812 11.21875 L 13.457031 12.378906 C 13.613281 12.546875 13.582031 12.828125 13.390625 13.003906 L 12.066406 14.234375 C 11.875 14.414062 11.589844 14.417969 11.4375 14.25 L 10.359375 13.089844 C 10.203125 12.921875 10.234375 12.640625 10.425781 12.464844 Z M 11.75 11.234375 " fill-opacity="1" fill-rule="nonzero"/></g></g></g><g clip-path="url(#864b088ece)"><g clip-path="url(#55be52f1aa)"><g clip-path="url(#f2ed2de997)"><path fill="#f37033" d="M 24.65625 12.46875 C 24.578125 12.542969 24.460938 12.542969 24.394531 12.472656 L 23.941406 11.984375 C 23.878906 11.914062 23.890625 11.796875 23.96875 11.722656 L 24.523438 11.210938 C 24.601562 11.140625 24.722656 11.136719 24.785156 11.207031 L 25.238281 11.695312 C 25.304688 11.765625 25.292969 11.882812 25.210938 11.957031 Z M 24.65625 12.46875 " fill-opacity="1" fill-rule="nonzero"/></g></g></g><g clip-path="url(#fc4e5e57cc)"><g clip-path="url(#aa5a728fa9)"><g clip-path="url(#37cb101854)"><path fill="#f37033" d="M 25.664062 16.683594 C 25.609375 16.734375 25.527344 16.734375 25.484375 16.6875 L 25.171875 16.347656 C 25.125 16.300781 25.132812 16.21875 25.1875 16.167969 L 25.574219 15.816406 C 25.628906 15.761719 25.707031 15.761719 25.753906 15.808594 L 26.066406 16.148438 C 26.113281 16.195312 26.105469 16.277344 26.050781 16.328125 Z M 25.664062 16.683594 " fill-opacity="1" fill-rule="nonzero"/></g></g></g><g clip-path="url(#1073386b36)"><g clip-path="url(#e32e720f92)"><g clip-path="url(#ef28c2eaf2)"><path fill="#f37033" d="M 23.152344 15.269531 L 22.324219 14.375 C 22.203125 14.246094 22.226562 14.03125 22.371094 13.894531 L 23.394531 12.945312 C 23.542969 12.808594 23.757812 12.804688 23.878906 12.933594 L 24.710938 13.828125 C 24.832031 13.957031 24.808594 14.171875 24.660156 14.308594 L 23.636719 15.257812 C 23.488281 15.394531 23.269531 15.398438 23.152344 15.269531 Z M 23.152344 15.269531 " fill-opacity="1" fill-rule="nonzero"/></g></g></g><g clip-path="url(#b8187a4591)"><g clip-path="url(#e6aaf855db)"><g clip-path="url(#caba057365)"><path fill="#f37033" d="M 20.445312 13.558594 C 20.378906 13.488281 20.390625 13.367188 20.476562 13.289062 L 21.046875 12.757812 C 21.132812 12.679688 21.253906 12.675781 21.320312 12.75 L 21.785156 13.253906 C 21.855469 13.324219 21.839844 13.445312 21.757812 13.523438 L 21.183594 14.054688 C 21.101562 14.132812 20.980469 14.136719 20.914062 14.0625 Z M 20.445312 13.558594 " fill-opacity="1" fill-rule="nonzero"/></g></g></g><g clip-path="url(#4f2334296e)"><g clip-path="url(#b01ac3607a)"><g clip-path="url(#8a0b565b40)"><path fill="#f37033" d="M 19.613281 15.382812 C 19.519531 15.464844 19.386719 15.46875 19.316406 15.390625 L 18.8125 14.84375 C 18.738281 14.765625 18.75 14.636719 18.84375 14.550781 L 19.464844 13.976562 C 19.554688 13.890625 19.683594 13.886719 19.757812 13.96875 L 20.265625 14.511719 C 20.335938 14.589844 20.324219 14.722656 20.234375 14.804688 Z M 19.613281 15.382812 " fill-opacity="1" fill-rule="nonzero"/></g></g></g><g clip-path="url(#ffc10d7b4e)"><g clip-path="url(#bd45870b7e)"><g clip-path="url(#6ae3e38466)"><path fill="#f37033" d="M 16.179688 15.6875 L 17.328125 14.625 C 17.492188 14.472656 17.738281 14.464844 17.871094 14.609375 L 18.804688 15.617188 C 18.941406 15.761719 18.917969 16.003906 18.75 16.160156 L 17.601562 17.222656 C 17.433594 17.375 17.191406 17.382812 17.054688 17.238281 L 16.125 16.230469 C 15.988281 16.085938 16.015625 15.84375 16.179688 15.6875 Z M 16.179688 15.6875 " fill-opacity="1" fill-rule="nonzero"/></g></g></g><g clip-path="url(#05bb71504c)"><g clip-path="url(#a23f2f9b71)"><g clip-path="url(#a54616cfd9)"><path fill="#f37033" d="M 23.363281 11.648438 L 22.339844 12.59375 C 22.191406 12.730469 21.976562 12.734375 21.855469 12.605469 L 21.027344 11.710938 C 20.90625 11.582031 20.929688 11.367188 21.078125 11.226562 L 22.097656 10.28125 C 22.246094 10.144531 22.464844 10.140625 22.582031 10.269531 L 23.410156 11.164062 C 23.53125 11.296875 23.507812 11.511719 23.363281 11.648438 Z M 23.363281 11.648438 " fill-opacity="1" fill-rule="nonzero"/></g></g></g><g clip-path="url(#63dc7f275d)"><g clip-path="url(#eb862fb3e3)"><g clip-path="url(#2ea8e27a61)"><path fill="#f37033" d="M 18.191406 11.738281 L 19.214844 10.789062 C 19.359375 10.652344 19.578125 10.648438 19.699219 10.777344 L 20.527344 11.671875 C 20.648438 11.800781 20.625 12.019531 20.476562 12.15625 L 19.453125 13.101562 C 19.308594 13.238281 19.089844 13.246094 18.96875 13.117188 L 18.140625 12.21875 C 18.019531 12.089844 18.042969 11.875 18.191406 11.738281 Z M 18.191406 11.738281 " fill-opacity="1" fill-rule="nonzero"/></g></g></g><g clip-path="url(#2520254a3c)"><g clip-path="url(#f953b678bb)"><g clip-path="url(#946e4a9b82)"><path fill="#f37033" d="M 18.460938 13.515625 L 18.773438 13.851562 C 18.816406 13.898438 18.808594 13.980469 18.753906 14.03125 L 18.371094 14.386719 C 18.316406 14.4375 18.234375 14.441406 18.1875 14.390625 L 17.878906 14.054688 C 17.832031 14.003906 17.839844 13.921875 17.894531 13.871094 L 18.277344 13.519531 C 18.332031 13.464844 18.414062 13.464844 18.460938 13.515625 Z M 18.460938 13.515625 " fill-opacity="1" fill-rule="nonzero"/></g></g></g><g clip-path="url(#af2efd02b2)"><g clip-path="url(#0bcf6687be)"><g clip-path="url(#56f587d54b)"><path fill="#f37033" d="M 16.265625 14.789062 C 16.070312 14.964844 15.789062 14.972656 15.636719 14.804688 L 14.558594 13.644531 C 14.402344 13.476562 14.433594 13.195312 14.625 13.019531 L 15.949219 11.792969 C 16.140625 11.613281 16.421875 11.605469 16.578125 11.773438 L 17.65625 12.9375 C 17.808594 13.105469 17.78125 13.382812 17.589844 13.5625 Z M 16.265625 14.789062 " fill-opacity="1" fill-rule="nonzero"/></g></g></g><g clip-path="url(#9989d54252)"><g clip-path="url(#08c5a209da)"><g clip-path="url(#ffcc138ac2)"><path fill="#f37033" d="M 21.328125 10.378906 C 21.160156 10.53125 20.917969 10.539062 20.78125 10.390625 L 19.851562 9.386719 C 19.714844 9.238281 19.742188 8.996094 19.90625 8.84375 L 21.054688 7.777344 C 21.222656 7.625 21.464844 7.617188 21.601562 7.765625 L 22.535156 8.769531 C 22.667969 8.914062 22.644531 9.160156 22.476562 9.3125 Z M 21.328125 10.378906 " fill-opacity="1" fill-rule="nonzero"/></g></g></g><g clip-path="url(#6c5cc17b7f)"><g clip-path="url(#39245025af)"><g clip-path="url(#da86b2d5c2)"><path fill="#f37033" d="M 17.90625 9.824219 L 18.609375 9.171875 C 18.710938 9.078125 18.859375 9.074219 18.941406 9.164062 L 19.511719 9.777344 C 19.59375 9.867188 19.578125 10.015625 19.476562 10.109375 L 18.773438 10.761719 C 18.671875 10.855469 18.523438 10.859375 18.441406 10.769531 L 17.871094 10.15625 C 17.789062 10.066406 17.804688 9.917969 17.90625 9.824219 Z M 17.90625 9.824219 " fill-opacity="1" fill-rule="nonzero"/></g></g></g><g clip-path="url(#adc40b3560)"><g clip-path="url(#67ca789601)"><g clip-path="url(#39ba9c395f)"><path fill="#f37033" d="M 18.007812 11.375 L 17.5625 11.789062 C 17.5 11.851562 17.40625 11.851562 17.351562 11.796875 L 16.988281 11.40625 C 16.9375 11.347656 16.945312 11.253906 17.011719 11.195312 L 17.457031 10.78125 C 17.519531 10.722656 17.617188 10.71875 17.667969 10.777344 L 18.03125 11.167969 C 18.082031 11.222656 18.074219 11.316406 18.007812 11.375 Z M 18.007812 11.375 " fill-opacity="1" fill-rule="nonzero"/></g></g></g><g clip-path="url(#456daaf89b)"><g clip-path="url(#c9860021c4)"><g clip-path="url(#57eababeb2)"><path fill="#f37033" d="M 11.9375 10.355469 L 11.238281 11.007812 C 11.136719 11.097656 10.988281 11.105469 10.90625 11.015625 L 10.335938 10.398438 C 10.253906 10.308594 10.269531 10.164062 10.371094 10.066406 L 11.070312 9.417969 C 11.171875 9.324219 11.320312 9.316406 11.402344 9.40625 L 11.972656 10.023438 C 12.054688 10.113281 12.039062 10.261719 11.9375 10.355469 Z M 11.9375 10.355469 " fill-opacity="1" fill-rule="nonzero"/></g></g></g><g clip-path="url(#941e0c2cb9)"><g clip-path="url(#fa0ce46e72)"><g clip-path="url(#926f5d1160)"><path fill="#f37033" d="M 13.460938 9.921875 C 13.3125 10.058594 13.097656 10.066406 12.976562 9.9375 L 12.148438 9.039062 C 12.027344 8.910156 12.050781 8.695312 12.199219 8.558594 L 13.21875 7.613281 C 13.367188 7.476562 13.585938 7.46875 13.707031 7.597656 L 14.535156 8.496094 C 14.652344 8.625 14.632812 8.839844 14.484375 8.976562 Z M 13.460938 9.921875 " fill-opacity="1" fill-rule="nonzero"/></g></g></g><g clip-path="url(#00ea4ea565)"><g clip-path="url(#17d49e8176)"><g clip-path="url(#1de63e7f1b)"><path fill="#f37033" d="M 15.996094 10.109375 L 16.394531 10.542969 C 16.453125 10.605469 16.441406 10.710938 16.371094 10.777344 L 15.878906 11.230469 C 15.808594 11.300781 15.703125 11.300781 15.644531 11.238281 L 15.246094 10.804688 C 15.1875 10.742188 15.199219 10.640625 15.269531 10.574219 L 15.761719 10.117188 C 15.832031 10.050781 15.9375 10.050781 15.996094 10.109375 Z M 15.996094 10.109375 " fill-opacity="1" fill-rule="nonzero"/></g></g></g><g clip-path="url(#e849c155d6)"><g clip-path="url(#2db6ca8832)"><g clip-path="url(#931caee446)"><path fill="#f37033" d="M 14.304688 12.433594 L 13.8125 11.902344 C 13.742188 11.828125 13.753906 11.699219 13.839844 11.621094 L 14.445312 11.058594 C 14.535156 10.980469 14.664062 10.976562 14.730469 11.050781 L 15.222656 11.582031 C 15.292969 11.65625 15.28125 11.785156 15.195312 11.867188 L 14.589844 12.425781 C 14.5 12.507812 14.375 12.511719 14.304688 12.433594 Z M 14.304688 12.433594 " fill-opacity="1" fill-rule="nonzero"/></g></g></g><g clip-path="url(#a843c8404d)"><g clip-path="url(#6334059b0d)"><g clip-path="url(#bfe32182ad)"><path fill="#f37033" d="M 14.867188 10.230469 L 14.554688 9.894531 C 14.507812 9.847656 14.515625 9.765625 14.570312 9.714844 L 14.953125 9.359375 C 15.007812 9.308594 15.089844 9.308594 15.136719 9.355469 L 15.449219 9.691406 C 15.492188 9.742188 15.484375 9.820312 15.429688 9.875 L 15.046875 10.226562 C 14.992188 10.277344 14.910156 10.28125 14.867188 10.230469 Z M 14.867188 10.230469 " fill-opacity="1" fill-rule="nonzero"/></g></g></g><g clip-path="url(#527f5c5955)"><g clip-path="url(#7e6d2058dd)"><g clip-path="url(#70573cfaba)"><path fill="#f37033" d="M 15.175781 15.203125 C 15.234375 15.148438 15.316406 15.148438 15.359375 15.195312 L 15.671875 15.535156 C 15.714844 15.582031 15.707031 15.664062 15.652344 15.714844 L 15.269531 16.070312 C 15.214844 16.121094 15.132812 16.121094 15.089844 16.074219 L 14.777344 15.738281 C 14.730469 15.6875 14.738281 15.605469 14.796875 15.554688 Z M 15.175781 15.203125 " fill-opacity="1" fill-rule="nonzero"/></g></g></g><g clip-path="url(#5d7905e294)"><g clip-path="url(#c8931bf0aa)"><g clip-path="url(#522f0e8f96)"><path fill="#f37033" d="M 13.804688 10.660156 L 13.570312 10.40625 C 13.535156 10.367188 13.542969 10.304688 13.585938 10.269531 L 13.871094 10 C 13.914062 9.960938 13.976562 9.960938 14.011719 9.996094 L 14.246094 10.25 C 14.28125 10.289062 14.273438 10.347656 14.230469 10.386719 L 13.941406 10.65625 C 13.902344 10.695312 13.839844 10.699219 13.804688 10.660156 Z M 13.804688 10.660156 " fill-opacity="1" fill-rule="nonzero"/></g></g></g><g clip-path="url(#6ee53c4f6f)"><g clip-path="url(#6cfc389550)"><g clip-path="url(#f1533ab92f)"><path fill="#f37033" d="M 23.253906 10.164062 C 23.222656 10.199219 23.167969 10.199219 23.140625 10.167969 L 22.941406 9.953125 C 22.914062 9.925781 22.917969 9.871094 22.953125 9.839844 L 23.195312 9.617188 C 23.230469 9.585938 23.28125 9.582031 23.308594 9.613281 L 23.507812 9.828125 C 23.535156 9.859375 23.53125 9.910156 23.496094 9.941406 Z M 23.253906 10.164062 " fill-opacity="1" fill-rule="nonzero"/></g></g></g><g clip-path="url(#85e048c434)"><g clip-path="url(#ba7f28d32e)"><g clip-path="url(#c136fd3392)"><path fill="#f37033" d="M 23.9375 10.902344 C 23.90625 10.9375 23.851562 10.9375 23.824219 10.90625 L 23.625 10.691406 C 23.597656 10.664062 23.601562 10.609375 23.636719 10.578125 L 23.878906 10.355469 C 23.914062 10.324219 23.964844 10.320312 23.992188 10.351562 L 24.191406 10.566406 C 24.222656 10.597656 24.214844 10.648438 24.183594 10.679688 Z M 23.9375 10.902344 " fill-opacity="1" fill-rule="nonzero"/></g></g></g><g clip-path="url(#3bbef13273)"><g clip-path="url(#2ae8a60b54)"><g clip-path="url(#7f22d56070)"><path fill="#f37033" d="M 22.066406 17.457031 L 23.0625 16.535156 C 23.203125 16.402344 23.417969 16.394531 23.535156 16.523438 L 24.339844 17.390625 C 24.457031 17.519531 24.433594 17.726562 24.289062 17.859375 L 23.296875 18.78125 C 23.152344 18.914062 22.941406 18.921875 22.824219 18.796875 L 22.019531 17.925781 C 21.902344 17.796875 21.921875 17.589844 22.066406 17.457031 Z M 22.066406 17.457031 " fill-opacity="1" fill-rule="nonzero"/></g></g></g><g clip-path="url(#e3aa71a9f4)"><g clip-path="url(#b1f1b68582)"><g clip-path="url(#4f50a25ec3)"><path fill="#f37033" d="M 21.679688 16.589844 C 21.558594 16.703125 21.378906 16.707031 21.285156 16.601562 L 20.613281 15.875 C 20.515625 15.769531 20.535156 15.597656 20.65625 15.484375 L 21.480469 14.71875 C 21.601562 14.609375 21.777344 14.605469 21.875 14.707031 L 22.546875 15.433594 C 22.640625 15.539062 22.625 15.710938 22.503906 15.824219 Z M 21.679688 16.589844 " fill-opacity="1" fill-rule="nonzero"/></g></g></g><g clip-path="url(#2d5f8afa4e)"><g clip-path="url(#61efde5ae8)"><g clip-path="url(#8a65d62bf9)"><path fill="#f37033" d="M 24.292969 15.550781 L 24.585938 15.871094 C 24.628906 15.917969 24.625 15.996094 24.570312 16.042969 L 24.207031 16.378906 C 24.15625 16.425781 24.078125 16.425781 24.035156 16.382812 L 23.738281 16.0625 C 23.695312 16.015625 23.703125 15.941406 23.757812 15.890625 L 24.117188 15.554688 C 24.171875 15.507812 24.246094 15.503906 24.292969 15.550781 Z M 24.292969 15.550781 " fill-opacity="1" fill-rule="nonzero"/></g></g></g><g clip-path="url(#ba7d9f88a7)"><g clip-path="url(#cd908edc4c)"><g clip-path="url(#72c2f6a7bc)"><path fill="#f37033" d="M 25.082031 16.628906 L 25.277344 16.839844 C 25.308594 16.871094 25.300781 16.921875 25.265625 16.957031 L 25.023438 17.179688 C 24.992188 17.210938 24.9375 17.214844 24.910156 17.179688 L 24.710938 16.964844 C 24.683594 16.9375 24.691406 16.882812 24.726562 16.851562 L 24.96875 16.628906 C 25 16.597656 25.054688 16.597656 25.082031 16.628906 Z M 25.082031 16.628906 " fill-opacity="1" fill-rule="nonzero"/></g></g></g><g clip-path="url(#5899e24214)"><g clip-path="url(#ed189ec934)"><g clip-path="url(#bb381472da)"><path fill="#f37033" d="M 16.234375 8.828125 C 16.085938 8.964844 15.867188 8.96875 15.75 8.839844 L 14.917969 7.945312 C 14.800781 7.816406 14.824219 7.601562 14.96875 7.464844 L 15.992188 6.515625 C 16.136719 6.378906 16.355469 6.375 16.476562 6.503906 L 17.304688 7.398438 C 17.425781 7.527344 17.402344 7.742188 17.253906 7.882812 Z M 16.234375 8.828125 " fill-opacity="1" fill-rule="nonzero"/></g></g></g><g clip-path="url(#955d430cff)"><g clip-path="url(#fa2b66020d)"><g clip-path="url(#6e68bd2add)"><path fill="#f37033" d="M 18.402344 8.890625 C 18.3125 8.972656 18.179688 8.976562 18.105469 8.898438 L 17.601562 8.355469 C 17.527344 8.277344 17.542969 8.144531 17.632812 8.058594 L 18.253906 7.484375 C 18.34375 7.402344 18.476562 7.398438 18.546875 7.476562 L 19.054688 8.023438 C 19.125 8.101562 19.113281 8.234375 19.023438 8.316406 Z M 18.402344 8.890625 " fill-opacity="1" fill-rule="nonzero"/></g></g></g><g clip-path="url(#72b5f0984c)"><g clip-path="url(#8e857aaa41)"><g clip-path="url(#ca4baf55ec)"><path fill="#f37033" d="M 17.394531 9.578125 L 17.105469 9.847656 C 17.0625 9.886719 17 9.886719 16.96875 9.851562 L 16.730469 9.597656 C 16.695312 9.558594 16.703125 9.496094 16.746094 9.460938 L 17.03125 9.191406 C 17.074219 9.152344 17.136719 9.152344 17.171875 9.1875 L 17.40625 9.445312 C 17.441406 9.480469 17.4375 9.539062 17.394531 9.578125 Z M 17.394531 9.578125 " fill-opacity="1" fill-rule="nonzero"/></g></g></g><g clip-path="url(#fc77de8412)"><g clip-path="url(#7f4e085bd2)"><g clip-path="url(#448546f42e)"><path fill="#f37033" d="M 19.609375 16.246094 C 19.761719 16.109375 19.976562 16.105469 20.101562 16.234375 L 20.9375 17.140625 C 21.058594 17.269531 21.035156 17.488281 20.886719 17.625 L 19.855469 18.578125 C 19.703125 18.71875 19.484375 18.722656 19.367188 18.59375 L 18.527344 17.691406 C 18.40625 17.558594 18.429688 17.339844 18.578125 17.203125 Z M 19.609375 16.246094 " fill-opacity="1" fill-rule="nonzero"/></g></g></g><g clip-path="url(#96294a3881)"><g clip-path="url(#d621d47231)"><g clip-path="url(#0c87fc0913)"><path fill="#f37033" d="M 21.058594 18.109375 C 21.113281 18.054688 21.191406 18.054688 21.238281 18.101562 L 21.550781 18.441406 C 21.597656 18.488281 21.585938 18.570312 21.53125 18.621094 L 21.148438 18.976562 C 21.09375 19.027344 21.011719 19.027344 20.96875 18.980469 L 20.65625 18.644531 C 20.613281 18.59375 20.621094 18.511719 20.675781 18.460938 Z M 21.058594 18.109375 " fill-opacity="1" fill-rule="nonzero"/></g></g></g><g clip-path="url(#c7d1f4b3a2)"><g clip-path="url(#09eaee41bd)"><g clip-path="url(#273767a26b)"><path fill="#f37033" d="M 17.742188 17.664062 C 17.785156 17.625 17.851562 17.621094 17.886719 17.664062 L 18.140625 17.933594 C 18.175781 17.972656 18.167969 18.039062 18.125 18.082031 L 17.8125 18.367188 C 17.769531 18.410156 17.703125 18.414062 17.667969 18.371094 L 17.414062 18.101562 C 17.378906 18.0625 17.386719 17.996094 17.429688 17.953125 Z M 17.742188 17.664062 " fill-opacity="1" fill-rule="nonzero"/></g></g></g><g clip-path="url(#34b1225410)"><g clip-path="url(#3518e02c33)"><g clip-path="url(#57cfa6917d)"><path fill="#f37033" d="M 23.855469 18.875 C 24.023438 18.71875 24.273438 18.710938 24.414062 18.859375 L 25.367188 19.890625 C 25.503906 20.039062 25.480469 20.289062 25.308594 20.445312 L 24.132812 21.535156 C 23.960938 21.691406 23.710938 21.699219 23.574219 21.550781 L 22.617188 20.519531 C 22.480469 20.371094 22.507812 20.121094 22.675781 19.964844 Z M 23.855469 18.875 " fill-opacity="1" fill-rule="nonzero"/></g></g></g><g clip-path="url(#400ac4f714)"><g clip-path="url(#d3196acec9)"><g clip-path="url(#43e0986451)"><path fill="#f37033" d="M 21.617188 18.980469 C 21.707031 18.898438 21.839844 18.894531 21.914062 18.972656 L 22.417969 19.519531 C 22.488281 19.597656 22.476562 19.726562 22.386719 19.8125 L 21.765625 20.386719 C 21.675781 20.46875 21.542969 20.472656 21.472656 20.398438 L 20.964844 19.851562 C 20.894531 19.773438 20.910156 19.640625 20.996094 19.558594 Z M 21.617188 18.980469 " fill-opacity="1" fill-rule="nonzero"/></g></g></g><g clip-path="url(#a0e873fc27)"><g clip-path="url(#37c6a9f83a)"><g clip-path="url(#85101f1548)"><path fill="#f37033" d="M 25.511719 15.265625 C 25.457031 15.316406 25.375 15.316406 25.332031 15.269531 L 25.015625 14.929688 C 24.972656 14.882812 24.980469 14.800781 25.035156 14.75 L 25.417969 14.394531 C 25.472656 14.34375 25.554688 14.34375 25.597656 14.390625 L 25.914062 14.730469 C 25.957031 14.777344 25.949219 14.859375 25.894531 14.910156 Z M 25.511719 15.265625 " fill-opacity="1" fill-rule="nonzero"/></g></g></g><g clip-path="url(#0b0fa48f46)"><g clip-path="url(#63454021bb)"><g clip-path="url(#5501059e1f)"><path fill="#f37033" d="M 25.207031 18.992188 C 25.128906 19.066406 25.011719 19.070312 24.945312 19 L 24.492188 18.511719 C 24.425781 18.441406 24.441406 18.324219 24.519531 18.25 L 25.074219 17.738281 C 25.152344 17.664062 25.269531 17.660156 25.335938 17.730469 L 25.785156 18.21875 C 25.851562 18.289062 25.839844 18.40625 25.761719 18.480469 Z M 25.207031 18.992188 " fill-opacity="1" fill-rule="nonzero"/></g></g></g><g clip-path="url(#4ec32d70b7)"><g clip-path="url(#65423c9ee4)"><g clip-path="url(#c335279689)"><path fill="#f37033" d="M 25.273438 13.691406 C 25.214844 13.742188 25.136719 13.742188 25.089844 13.695312 L 24.777344 13.359375 C 24.730469 13.308594 24.738281 13.230469 24.796875 13.175781 L 25.175781 12.824219 C 25.234375 12.773438 25.3125 12.769531 25.359375 12.820312 L 25.671875 13.15625 C 25.71875 13.203125 25.707031 13.285156 25.652344 13.335938 Z M 25.273438 13.691406 " fill-opacity="1" fill-rule="nonzero"/></g></g></g><g clip-path="url(#2dae46d4b6)"><g clip-path="url(#745502c5da)"><g clip-path="url(#05fd0cde3a)"><path fill="#f37033" d="M 19.800781 8.003906 C 19.746094 8.054688 19.664062 8.054688 19.621094 8.007812 L 19.308594 7.671875 C 19.261719 7.621094 19.269531 7.539062 19.328125 7.488281 L 19.710938 7.136719 C 19.765625 7.082031 19.847656 7.082031 19.890625 7.128906 L 20.203125 7.46875 C 20.25 7.515625 20.242188 7.597656 20.1875 7.648438 Z M 19.800781 8.003906 " fill-opacity="1" fill-rule="nonzero"/></g></g></g><g clip-path="url(#875abc5004)"><g clip-path="url(#a807c1c35e)"><g clip-path="url(#6344a56458)"><path fill="#f37033" d="M 12.984375 10.511719 L 13.296875 10.847656 C 13.339844 10.894531 13.332031 10.976562 13.277344 11.027344 L 12.894531 11.382812 C 12.839844 11.433594 12.757812 11.433594 12.714844 11.386719 L 12.402344 11.050781 C 12.355469 11 12.363281 10.921875 12.421875 10.867188 L 12.800781 10.515625 C 12.855469 10.460938 12.9375 10.460938 12.984375 10.511719 Z M 12.984375 10.511719 " fill-opacity="1" fill-rule="nonzero"/></g></g></g><g clip-path="url(#d154a7fbf0)"><g clip-path="url(#a229b08626)"><g clip-path="url(#5a2a7adc41)"><path fill="#f37033" d="M 13.4375 13.59375 C 13.578125 13.460938 13.789062 13.457031 13.902344 13.578125 L 14.699219 14.441406 C 14.8125 14.566406 14.792969 14.773438 14.652344 14.90625 L 13.667969 15.8125 C 13.527344 15.945312 13.316406 15.949219 13.203125 15.828125 L 12.40625 14.964844 C 12.292969 14.839844 12.3125 14.632812 12.457031 14.503906 Z M 13.4375 13.59375 " fill-opacity="1" fill-rule="nonzero"/></g></g></g><g clip-path="url(#a34be2f288)"><g clip-path="url(#b865f9fdce)"><g clip-path="url(#c43ac84458)"><path fill="#f37033" d="M 15.574219 16.484375 C 15.617188 16.445312 15.679688 16.441406 15.714844 16.480469 L 15.949219 16.734375 C 15.980469 16.773438 15.976562 16.832031 15.933594 16.871094 L 15.644531 17.140625 C 15.601562 17.179688 15.539062 17.179688 15.507812 17.140625 L 15.269531 16.886719 C 15.238281 16.851562 15.242188 16.789062 15.285156 16.75 Z M 15.574219 16.484375 " fill-opacity="1" fill-rule="nonzero"/></g></g></g><g clip-path="url(#1bd8485589)"><g clip-path="url(#7b3fb6377a)"><g clip-path="url(#1a678098f7)"><path fill="#f37033" d="M 20.058594 18.996094 C 20.101562 18.957031 20.164062 18.953125 20.199219 18.992188 L 20.433594 19.246094 C 20.464844 19.28125 20.460938 19.34375 20.417969 19.382812 L 20.128906 19.652344 C 20.089844 19.691406 20.027344 19.691406 19.992188 19.652344 L 19.757812 19.398438 C 19.722656 19.363281 19.726562 19.300781 19.769531 19.261719 Z M 20.058594 18.996094 " fill-opacity="1" fill-rule="nonzero"/></g></g></g><g clip-path="url(#0ec1ffaf8e)"><g clip-path="url(#5437e3af00)"><g clip-path="url(#b0227ffff9)"><path fill="#f37033" d="M 9.855469 11.472656 L 10.144531 11.203125 C 10.1875 11.164062 10.25 11.164062 10.28125 11.203125 L 10.519531 11.457031 C 10.554688 11.492188 10.546875 11.554688 10.503906 11.59375 L 10.21875 11.859375 C 10.175781 11.898438 10.113281 11.902344 10.078125 11.863281 L 9.84375 11.609375 C 9.808594 11.574219 9.8125 11.511719 9.855469 11.472656 Z M 9.855469 11.472656 " fill-opacity="1" fill-rule="nonzero"/></g></g></g><g clip-path="url(#25d93ead73)"><g clip-path="url(#851daf9ac6)"><g clip-path="url(#4ce14f1590)"><path fill="#ffffff" d="M 9.679688 5.457031 C 11.664062 4.117188 15.757812 1.84375 19.933594 2.976562 C 23.550781 3.636719 26.640625 6.015625 28.398438 9.21875 C 28.953125 10.234375 29.363281 11.332031 29.652344 12.453125 C 30.03125 13.921875 30.257812 15.730469 30.058594 17.835938 C 29.617188 22.554688 27.054688 25.605469 23.839844 28.191406 C 22.179688 29.53125 20.898438 30.972656 20.046875 32.054688 C 20.023438 29.304688 22.296875 27.453125 23.914062 25.554688 C 25.625 23.550781 26.792969 21.121094 27.195312 18.511719 C 27.417969 17.074219 27.394531 15.511719 27.089844 14.085938 C 26.882812 13.113281 26.558594 12.085938 26.121094 11.191406 C 23.90625 6.675781 19.28125 5.867188 19.28125 5.867188 C 19.28125 5.867188 14.789062 4.617188 10.855469 7.707031 C 10.867188 7.695312 10.863281 7.699219 10.816406 7.730469 C 10.742188 7.792969 10.757812 7.78125 10.789062 7.757812 C 7.625 10.398438 7.285156 14.1875 12.664062 16.839844 C 12.664062 16.839844 5.242188 15 6.320312 10.214844 C 6.519531 9.328125 7.011719 8.339844 7.894531 7.246094 C 8.445312 6.5625 9.042969 5.96875 9.679688 5.457031 Z M 9.679688 5.457031 " fill-opacity="1" fill-rule="nonzero"/></g></g></g><g clip-path="url(#55fb8b96e7)"><g clip-path="url(#ffde4bee4a)"><g clip-path="url(#6b0ec34bb6)"><path fill="#ffffff" d="M 10.214844 31.148438 L 18.136719 32.941406 C 18.578125 33.039062 18.851562 33.472656 18.753906 33.910156 C 18.652344 34.347656 18.21875 34.625 17.78125 34.523438 L 9.855469 32.734375 C 9.417969 32.632812 9.144531 32.199219 9.242188 31.761719 C 9.339844 31.324219 9.777344 31.050781 10.214844 31.148438 Z M 10.214844 31.148438 " fill-opacity="1" fill-rule="nonzero"/></g></g></g><g clip-path="url(#8baf25fea3)"><g clip-path="url(#b7129925d8)"><g clip-path="url(#4ecbda366a)"><path fill="#ffffff" d="M 10.597656 33.699219 L 16.542969 35.042969 C 16.691406 35.074219 16.804688 35.171875 16.875 35.292969 C 16.9375 35.398438 16.960938 35.527344 16.929688 35.660156 C 16.867188 35.9375 16.042969 37.59375 14.269531 37.191406 L 12.996094 36.902344 L 11.71875 36.613281 C 11.1875 36.496094 10.808594 36.242188 10.546875 35.941406 C 9.9375 35.242188 9.933594 34.28125 9.980469 34.089844 C 10.042969 33.808594 10.316406 33.636719 10.597656 33.699219 Z M 10.597656 33.699219 " fill-opacity="1" fill-rule="nonzero"/></g></g></g></g></g></g></g><g clip-path="url(#219bfd2297)"><g transform="matrix(1, 0, 0, 1, 30, 8)"><g clip-path="url(#4d8de687cd)"><g clip-path="url(#47b7b834c0)"><g fill="#ffffff" fill-opacity="1"><g transform="translate(1.632636, 26.071368)"><g><path d="M 11 -16.5 C 11.34375 -16.5 11.609375 -16.441406 11.796875 -16.328125 C 11.984375 -16.222656 12.078125 -16.070312 12.078125 -15.875 C 12.078125 -15.789062 12.054688 -15.679688 12.015625 -15.546875 C 11.960938 -15.429688 11.890625 -15.328125 11.796875 -15.234375 C 11.710938 -15.148438 11.628906 -15.085938 11.546875 -15.046875 C 11.472656 -15.003906 11.421875 -14.96875 11.390625 -14.9375 C 11.128906 -14.78125 10.914062 -14.613281 10.75 -14.4375 C 10.582031 -14.257812 10.441406 -13.976562 10.328125 -13.59375 L 7.328125 -2.921875 C 7.265625 -2.703125 7.234375 -2.492188 7.234375 -2.296875 C 7.234375 -2.097656 7.257812 -1.929688 7.3125 -1.796875 C 7.375 -1.671875 7.460938 -1.535156 7.578125 -1.390625 C 7.722656 -1.171875 7.796875 -0.992188 7.796875 -0.859375 C 7.796875 -0.828125 7.78125 -0.75 7.75 -0.625 C 7.6875 -0.382812 7.535156 -0.21875 7.296875 -0.125 C 7.066406 -0.0390625 6.722656 0 6.265625 0 L 0.453125 0 C 0.0976562 0 -0.171875 -0.0546875 -0.359375 -0.171875 C -0.546875 -0.285156 -0.640625 -0.441406 -0.640625 -0.640625 C -0.640625 -0.742188 -0.613281 -0.851562 -0.5625 -0.96875 C -0.5 -1.144531 -0.394531 -1.28125 -0.25 -1.375 C -0.101562 -1.476562 -0.0078125 -1.539062 0.03125 -1.5625 C 0.289062 -1.726562 0.503906 -1.894531 0.671875 -2.0625 C 0.835938 -2.238281 0.976562 -2.523438 1.09375 -2.921875 L 4.109375 -13.59375 C 4.171875 -13.8125 4.203125 -14.019531 4.203125 -14.21875 C 4.203125 -14.394531 4.171875 -14.546875 4.109375 -14.671875 C 4.054688 -14.796875 3.984375 -14.941406 3.890625 -15.109375 C 3.742188 -15.316406 3.671875 -15.488281 3.671875 -15.625 C 3.671875 -15.675781 3.6875 -15.769531 3.71875 -15.90625 C 3.78125 -16.113281 3.921875 -16.265625 4.140625 -16.359375 C 4.367188 -16.453125 4.710938 -16.5 5.171875 -16.5 Z M 11 -16.5 "/></g></g></g></g><g fill="#ffffff" fill-opacity="1"><g transform="translate(11.636811, 26.071368)"><g><path d="M 13.84375 -3.5625 C 13.8125 -3.4375 13.796875 -3.347656 13.796875 -3.296875 C 13.796875 -3.179688 13.828125 -3.085938 13.890625 -3.015625 C 13.960938 -2.953125 14.046875 -2.921875 14.140625 -2.921875 C 14.335938 -2.921875 14.503906 -3.003906 14.640625 -3.171875 C 14.785156 -3.347656 14.882812 -3.4375 14.9375 -3.4375 C 15.019531 -3.4375 15.082031 -3.378906 15.125 -3.265625 C 15.175781 -3.148438 15.203125 -3.019531 15.203125 -2.875 C 15.222656 -2.425781 15.054688 -1.96875 14.703125 -1.5 C 14.347656 -1.039062 13.875 -0.660156 13.28125 -0.359375 C 12.6875 -0.0664062 12.039062 0.078125 11.34375 0.078125 C 10.519531 0.078125 9.800781 -0.078125 9.1875 -0.390625 C 8.570312 -0.703125 8.148438 -1.117188 7.921875 -1.640625 C 7.472656 -1.054688 6.957031 -0.625 6.375 -0.34375 C 5.800781 -0.0625 5.195312 0.078125 4.5625 0.078125 C 3.800781 0.078125 3.09375 -0.109375 2.4375 -0.484375 C 1.789062 -0.867188 1.269531 -1.410156 0.875 -2.109375 C 0.488281 -2.816406 0.296875 -3.613281 0.296875 -4.5 C 0.296875 -6.007812 0.578125 -7.425781 1.140625 -8.75 C 1.710938 -10.082031 2.507812 -11.15625 3.53125 -11.96875 C 4.5625 -12.789062 5.726562 -13.203125 7.03125 -13.203125 C 7.738281 -13.203125 8.34375 -13.117188 8.84375 -12.953125 C 9.351562 -12.785156 9.816406 -12.535156 10.234375 -12.203125 L 11.0625 -14.984375 C 11.113281 -15.128906 11.140625 -15.253906 11.140625 -15.359375 C 11.140625 -15.535156 11.09375 -15.679688 11 -15.796875 C 10.914062 -15.910156 10.800781 -16.023438 10.65625 -16.140625 C 10.488281 -16.273438 10.363281 -16.390625 10.28125 -16.484375 C 10.207031 -16.585938 10.195312 -16.722656 10.25 -16.890625 C 10.351562 -17.265625 10.875 -17.59375 11.8125 -17.875 C 12.75 -18.15625 13.734375 -18.296875 14.765625 -18.296875 C 15.722656 -18.296875 16.425781 -18.113281 16.875 -17.75 C 17.332031 -17.394531 17.5625 -16.898438 17.5625 -16.265625 C 17.5625 -15.898438 17.503906 -15.546875 17.390625 -15.203125 Z M 9.703125 -10.53125 C 9.441406 -10.757812 9.15625 -10.875 8.84375 -10.875 C 8.363281 -10.875 7.890625 -10.519531 7.421875 -9.8125 C 6.960938 -9.101562 6.59375 -8.242188 6.3125 -7.234375 C 6.03125 -6.222656 5.898438 -5.3125 5.921875 -4.5 C 5.921875 -3.59375 6.21875 -3.140625 6.8125 -3.140625 C 7.019531 -3.140625 7.195312 -3.226562 7.34375 -3.40625 C 7.5 -3.582031 7.644531 -3.867188 7.78125 -4.265625 Z M 9.703125 -10.53125 "/></g></g></g><g fill="#ffffff" fill-opacity="1"><g transform="translate(27.856462, 26.071368)"><g><path d="M 8.390625 -13.21875 C 10.492188 -13.21875 12.015625 -12.882812 12.953125 -12.21875 C 13.890625 -11.550781 14.359375 -10.695312 14.359375 -9.65625 C 14.359375 -9.34375 14.328125 -9.054688 14.265625 -8.796875 C 14.015625 -7.703125 13.320312 -6.921875 12.1875 -6.453125 C 11.0625 -5.984375 9.734375 -5.75 8.203125 -5.75 C 7.421875 -5.75 6.691406 -5.796875 6.015625 -5.890625 C 6.003906 -5.035156 6.238281 -4.429688 6.71875 -4.078125 C 7.195312 -3.734375 7.863281 -3.5625 8.71875 -3.5625 C 9.113281 -3.5625 9.492188 -3.609375 9.859375 -3.703125 C 10.222656 -3.796875 10.6875 -3.929688 11.25 -4.109375 C 11.707031 -4.273438 12.019531 -4.359375 12.1875 -4.359375 C 12.363281 -4.359375 12.453125 -4.25 12.453125 -4.03125 C 12.472656 -3.457031 12.257812 -2.851562 11.8125 -2.21875 C 11.363281 -1.582031 10.703125 -1.039062 9.828125 -0.59375 C 8.953125 -0.144531 7.894531 0.078125 6.65625 0.078125 C 4.820312 0.078125 3.316406 -0.382812 2.140625 -1.3125 C 0.972656 -2.238281 0.390625 -3.582031 0.390625 -5.34375 C 0.390625 -5.84375 0.457031 -6.421875 0.59375 -7.078125 C 1.007812 -9.109375 1.914062 -10.640625 3.3125 -11.671875 C 4.707031 -12.703125 6.398438 -13.21875 8.390625 -13.21875 Z M 6.1875 -7.375 C 6.257812 -7.363281 6.351562 -7.359375 6.46875 -7.359375 C 7.15625 -7.359375 7.679688 -7.675781 8.046875 -8.3125 C 8.410156 -8.957031 8.582031 -9.675781 8.5625 -10.46875 C 8.550781 -10.9375 8.421875 -11.171875 8.171875 -11.171875 C 7.992188 -11.171875 7.78125 -11.023438 7.53125 -10.734375 C 7.28125 -10.441406 7.035156 -10.003906 6.796875 -9.421875 C 6.554688 -8.847656 6.351562 -8.164062 6.1875 -7.375 Z M 6.1875 -7.375 "/></g></g></g><g fill="#ffffff" fill-opacity="1"><g transform="translate(41.723645, 26.071368)"><g><path d="M 8.84375 -13.09375 C 10.738281 -13.09375 12.253906 -12.742188 13.390625 -12.046875 C 14.535156 -11.347656 15.109375 -10.28125 15.109375 -8.84375 C 15.109375 -8.300781 15.007812 -7.679688 14.8125 -6.984375 L 13.796875 -3.5625 C 13.773438 -3.5 13.765625 -3.414062 13.765625 -3.3125 C 13.765625 -3.050781 13.875 -2.921875 14.09375 -2.921875 C 14.289062 -2.921875 14.457031 -3.003906 14.59375 -3.171875 C 14.738281 -3.347656 14.835938 -3.4375 14.890625 -3.4375 C 14.972656 -3.4375 15.039062 -3.378906 15.09375 -3.265625 C 15.15625 -3.148438 15.1875 -3.019531 15.1875 -2.875 C 15.195312 -2.425781 15.023438 -1.96875 14.671875 -1.5 C 14.316406 -1.039062 13.84375 -0.660156 13.25 -0.359375 C 12.65625 -0.0664062 12.003906 0.078125 11.296875 0.078125 C 10.429688 0.078125 9.691406 -0.078125 9.078125 -0.390625 C 8.472656 -0.703125 8.054688 -1.164062 7.828125 -1.78125 C 7.328125 -1.1875 6.738281 -0.726562 6.0625 -0.40625 C 5.382812 -0.0820312 4.660156 0.078125 3.890625 0.078125 C 3.015625 0.078125 2.28125 -0.0859375 1.6875 -0.421875 C 1.09375 -0.765625 0.648438 -1.203125 0.359375 -1.734375 C 0.0664062 -2.273438 -0.078125 -2.84375 -0.078125 -3.4375 C -0.078125 -3.707031 -0.0507812 -3.960938 0 -4.203125 C 0.257812 -5.347656 0.832031 -6.207031 1.71875 -6.78125 C 2.601562 -7.363281 3.65625 -7.65625 4.875 -7.65625 C 6.25 -7.65625 7.597656 -7.441406 8.921875 -7.015625 L 9.53125 -8.640625 C 9.75 -9.335938 9.859375 -9.875 9.859375 -10.25 C 9.835938 -10.644531 9.703125 -10.941406 9.453125 -11.140625 C 9.210938 -11.335938 8.835938 -11.4375 8.328125 -11.4375 C 8.421875 -11.175781 8.46875 -10.90625 8.46875 -10.625 C 8.46875 -10.007812 8.234375 -9.476562 7.765625 -9.03125 C 7.304688 -8.59375 6.648438 -8.375 5.796875 -8.375 C 4.984375 -8.375 4.347656 -8.550781 3.890625 -8.90625 C 3.441406 -9.257812 3.21875 -9.703125 3.21875 -10.234375 C 3.21875 -11.054688 3.679688 -11.738281 4.609375 -12.28125 C 5.535156 -12.820312 6.945312 -13.09375 8.84375 -13.09375 Z M 7.453125 -5.59375 C 6.992188 -5.59375 6.617188 -5.414062 6.328125 -5.0625 C 6.035156 -4.707031 5.890625 -4.320312 5.890625 -3.90625 C 5.890625 -3.644531 5.953125 -3.429688 6.078125 -3.265625 C 6.203125 -3.097656 6.378906 -3.015625 6.609375 -3.015625 C 6.828125 -3.015625 7.0625 -3.101562 7.3125 -3.28125 C 7.570312 -3.457031 7.757812 -3.71875 7.875 -4.0625 L 8.390625 -5.515625 C 8.109375 -5.566406 7.796875 -5.59375 7.453125 -5.59375 Z M 7.453125 -5.59375 "/></g></g></g><g fill="#ffffff" fill-opacity="1"><g transform="translate(57.918532, 26.071368)"><g><path d="M 12.625 -13.203125 C 13.851562 -13.203125 14.832031 -12.765625 15.5625 -11.890625 C 16.300781 -11.015625 16.671875 -9.859375 16.671875 -8.421875 C 16.671875 -7.679688 16.578125 -6.953125 16.390625 -6.234375 C 15.867188 -4.109375 14.96875 -2.5 13.6875 -1.40625 C 12.40625 -0.320312 10.929688 0.21875 9.265625 0.21875 C 8.316406 0.21875 7.5 0.0546875 6.8125 -0.265625 C 6.132812 -0.585938 5.585938 -1.046875 5.171875 -1.640625 L 4.28125 -0.859375 C 3.9375 -0.566406 3.597656 -0.347656 3.265625 -0.203125 C 2.941406 -0.0664062 2.5625 0 2.125 0 L 1.046875 0 C 0.628906 0 0.304688 -0.0820312 0.078125 -0.25 C -0.140625 -0.425781 -0.25 -0.679688 -0.25 -1.015625 C -0.25 -1.160156 -0.222656 -1.332031 -0.171875 -1.53125 L 3.96875 -14.984375 C 4.007812 -15.128906 4.03125 -15.253906 4.03125 -15.359375 C 4.03125 -15.640625 3.859375 -15.898438 3.515625 -16.140625 C 3.347656 -16.296875 3.234375 -16.414062 3.171875 -16.5 C 3.109375 -16.59375 3.097656 -16.710938 3.140625 -16.859375 C 3.253906 -17.242188 3.773438 -17.578125 4.703125 -17.859375 C 5.640625 -18.148438 6.625 -18.296875 7.65625 -18.296875 C 8.613281 -18.296875 9.316406 -18.109375 9.765625 -17.734375 C 10.222656 -17.367188 10.453125 -16.875 10.453125 -16.25 C 10.453125 -15.894531 10.394531 -15.546875 10.28125 -15.203125 L 9.234375 -11.84375 C 10.191406 -12.75 11.320312 -13.203125 12.625 -13.203125 Z M 9.828125 -6.390625 C 10.160156 -7.515625 10.328125 -8.421875 10.328125 -9.109375 C 10.328125 -9.867188 10.101562 -10.25 9.65625 -10.25 C 9.257812 -10.25 8.890625 -10.046875 8.546875 -9.640625 L 6.9375 -4.390625 L 6.78125 -3.90625 C 6.695312 -3.664062 6.65625 -3.410156 6.65625 -3.140625 C 6.65625 -2.566406 6.929688 -2.28125 7.484375 -2.28125 C 7.878906 -2.28125 8.253906 -2.566406 8.609375 -3.140625 C 8.972656 -3.722656 9.378906 -4.804688 9.828125 -6.390625 Z M 9.828125 -6.390625 "/></g></g></g><g fill="#ffffff" fill-opacity="1"><g transform="translate(74.682961, 26.071368)"><g><path d="M 12.15625 -13.09375 C 13.082031 -13.09375 13.820312 -12.8125 14.375 -12.25 C 14.925781 -11.695312 15.203125 -11.003906 15.203125 -10.171875 C 15.203125 -9.859375 15.171875 -9.570312 15.109375 -9.3125 C 14.941406 -8.632812 14.625 -8.113281 14.15625 -7.75 C 13.695312 -7.382812 13.144531 -7.203125 12.5 -7.203125 C 11.875 -7.203125 11.398438 -7.347656 11.078125 -7.640625 C 10.753906 -7.941406 10.472656 -8.34375 10.234375 -8.84375 C 10.097656 -9.125 9.972656 -9.328125 9.859375 -9.453125 C 9.742188 -9.585938 9.609375 -9.65625 9.453125 -9.65625 C 9.296875 -9.65625 9.15625 -9.585938 9.03125 -9.453125 C 8.90625 -9.328125 8.789062 -9.097656 8.6875 -8.765625 L 6.78125 -2.578125 C 6.75 -2.492188 6.734375 -2.367188 6.734375 -2.203125 C 6.734375 -1.984375 6.796875 -1.804688 6.921875 -1.671875 C 7.046875 -1.535156 7.21875 -1.398438 7.4375 -1.265625 C 7.632812 -1.128906 7.765625 -1.019531 7.828125 -0.9375 C 7.890625 -0.851562 7.914062 -0.75 7.90625 -0.625 C 7.863281 -0.40625 7.738281 -0.242188 7.53125 -0.140625 C 7.332031 -0.046875 6.984375 0 6.484375 0 L 0.15625 0 C -0.28125 0 -0.59375 -0.0664062 -0.78125 -0.203125 C -0.96875 -0.347656 -1.035156 -0.535156 -0.984375 -0.765625 C -0.921875 -0.960938 -0.75 -1.132812 -0.46875 -1.28125 C -0.21875 -1.414062 -0.015625 -1.570312 0.140625 -1.75 C 0.304688 -1.9375 0.445312 -2.226562 0.5625 -2.625 L 2.78125 -9.78125 C 2.8125 -9.863281 2.828125 -9.976562 2.828125 -10.125 C 2.828125 -10.3125 2.785156 -10.453125 2.703125 -10.546875 C 2.628906 -10.648438 2.515625 -10.773438 2.359375 -10.921875 C 2.191406 -11.054688 2.070312 -11.171875 2 -11.265625 C 1.9375 -11.367188 1.929688 -11.503906 1.984375 -11.671875 C 2.078125 -12.046875 2.59375 -12.375 3.53125 -12.65625 C 4.476562 -12.945312 5.460938 -13.09375 6.484375 -13.09375 C 7.160156 -13.09375 7.722656 -12.941406 8.171875 -12.640625 C 8.617188 -12.335938 8.910156 -11.90625 9.046875 -11.34375 C 9.835938 -12.507812 10.875 -13.09375 12.15625 -13.09375 Z M 12.15625 -13.09375 "/></g></g></g><g fill="#ffffff" fill-opacity="1"><g transform="translate(89.020634, 26.071368)"><g><path d="M 6.515625 -13.09375 C 7.472656 -13.09375 8.175781 -12.910156 8.625 -12.546875 C 9.070312 -12.191406 9.296875 -11.695312 9.296875 -11.0625 C 9.296875 -10.6875 9.238281 -10.328125 9.125 -9.984375 L 6.84375 -2.578125 C 6.789062 -2.378906 6.765625 -2.207031 6.765625 -2.0625 C 6.765625 -1.84375 6.804688 -1.671875 6.890625 -1.546875 C 6.972656 -1.421875 7.085938 -1.300781 7.234375 -1.1875 C 7.347656 -1.070312 7.429688 -0.976562 7.484375 -0.90625 C 7.535156 -0.832031 7.546875 -0.738281 7.515625 -0.625 C 7.429688 -0.40625 7.265625 -0.242188 7.015625 -0.140625 C 6.765625 -0.046875 6.382812 0 5.875 0 L 0.234375 0 C -0.203125 0 -0.519531 -0.0664062 -0.71875 -0.203125 C -0.914062 -0.347656 -0.976562 -0.535156 -0.90625 -0.765625 C -0.84375 -0.960938 -0.671875 -1.132812 -0.390625 -1.28125 C -0.140625 -1.414062 0.0625 -1.570312 0.21875 -1.75 C 0.382812 -1.9375 0.523438 -2.226562 0.640625 -2.625 L 2.796875 -9.78125 C 2.847656 -9.925781 2.875 -10.050781 2.875 -10.15625 C 2.875 -10.332031 2.832031 -10.472656 2.75 -10.578125 C 2.664062 -10.691406 2.539062 -10.804688 2.375 -10.921875 C 2.21875 -11.054688 2.101562 -11.171875 2.03125 -11.265625 C 1.96875 -11.367188 1.960938 -11.503906 2.015625 -11.671875 C 2.109375 -12.046875 2.625 -12.375 3.5625 -12.65625 C 4.507812 -12.945312 5.492188 -13.09375 6.515625 -13.09375 Z M 8.1875 -18.578125 C 8.820312 -18.578125 9.351562 -18.363281 9.78125 -17.9375 C 10.21875 -17.519531 10.4375 -17.003906 10.4375 -16.390625 C 10.4375 -15.960938 10.320312 -15.539062 10.09375 -15.125 C 9.875 -14.71875 9.5625 -14.382812 9.15625 -14.125 C 8.75 -13.875 8.300781 -13.75 7.8125 -13.75 C 7.1875 -13.75 6.660156 -13.957031 6.234375 -14.375 C 5.816406 -14.800781 5.597656 -15.328125 5.578125 -15.953125 C 5.578125 -16.359375 5.679688 -16.765625 5.890625 -17.171875 C 6.109375 -17.578125 6.414062 -17.910156 6.8125 -18.171875 C 7.207031 -18.441406 7.664062 -18.578125 8.1875 -18.578125 Z M 8.1875 -18.578125 "/></g></g></g><g fill="#ffffff" fill-opacity="1"><g transform="translate(98.083829, 26.071368)"><g><path d="M 13.046875 -13.09375 C 13.742188 -13.09375 14.3125 -12.859375 14.75 -12.390625 C 15.195312 -11.921875 15.421875 -11.34375 15.421875 -10.65625 C 15.421875 -10.332031 15.375 -10.007812 15.28125 -9.6875 C 15.101562 -9.125 14.832031 -8.703125 14.46875 -8.421875 C 14.113281 -8.140625 13.71875 -8 13.28125 -8 C 12.75 -8 12.234375 -8.171875 11.734375 -8.515625 L 10.5 -7.359375 C 10.914062 -6.234375 11.253906 -5.394531 11.515625 -4.84375 C 11.773438 -4.300781 11.988281 -3.953125 12.15625 -3.796875 C 12.320312 -3.640625 12.515625 -3.5625 12.734375 -3.5625 C 12.847656 -3.5625 12.992188 -3.609375 13.171875 -3.703125 C 13.359375 -3.796875 13.5 -3.84375 13.59375 -3.84375 C 13.695312 -3.84375 13.78125 -3.796875 13.84375 -3.703125 C 13.90625 -3.609375 13.9375 -3.488281 13.9375 -3.34375 C 13.9375 -3.257812 13.921875 -3.132812 13.890625 -2.96875 C 13.765625 -2.40625 13.484375 -1.894531 13.046875 -1.4375 C 12.617188 -0.976562 12.109375 -0.609375 11.515625 -0.328125 C 10.921875 -0.0546875 10.316406 0.078125 9.703125 0.078125 C 9.097656 0.078125 8.570312 0 8.125 -0.15625 C 7.675781 -0.3125 7.21875 -0.660156 6.75 -1.203125 C 6.289062 -1.753906 5.820312 -2.578125 5.34375 -3.671875 L 4.734375 -2.28125 C 4.335938 -1.40625 3.9375 -0.789062 3.53125 -0.4375 C 3.125 -0.0820312 2.648438 0.09375 2.109375 0.09375 C 1.378906 0.09375 0.78125 -0.132812 0.3125 -0.59375 C -0.144531 -1.050781 -0.375 -1.640625 -0.375 -2.359375 C -0.375 -2.679688 -0.320312 -3 -0.21875 -3.3125 C -0.0390625 -3.875 0.222656 -4.296875 0.578125 -4.578125 C 0.929688 -4.859375 1.332031 -5 1.78125 -5 C 2.3125 -5 2.820312 -4.828125 3.3125 -4.484375 L 4.5625 -5.640625 C 4.164062 -6.765625 3.84375 -7.601562 3.59375 -8.15625 C 3.34375 -8.707031 3.128906 -9.0625 2.953125 -9.21875 C 2.785156 -9.375 2.59375 -9.453125 2.375 -9.453125 C 2.257812 -9.453125 2.113281 -9.40625 1.9375 -9.3125 C 1.769531 -9.226562 1.632812 -9.1875 1.53125 -9.1875 C 1.28125 -9.1875 1.15625 -9.359375 1.15625 -9.703125 C 1.15625 -9.753906 1.175781 -9.863281 1.21875 -10.03125 C 1.425781 -10.882812 1.941406 -11.609375 2.765625 -12.203125 C 3.597656 -12.796875 4.484375 -13.09375 5.421875 -13.09375 C 6.015625 -13.09375 6.535156 -13.003906 6.984375 -12.828125 C 7.441406 -12.648438 7.898438 -12.285156 8.359375 -11.734375 C 8.816406 -11.191406 9.273438 -10.398438 9.734375 -9.359375 L 10.421875 -10.921875 C 10.785156 -11.710938 11.164062 -12.269531 11.5625 -12.59375 C 11.957031 -12.925781 12.453125 -13.09375 13.046875 -13.09375 Z M 13.046875 -13.09375 "/></g></g></g></g></g></g><g clip-path="url(#7c4d0e7e47)"><g clip-path="url(#fa469ee9ab)"><g transform="matrix(1, 0, 0, 1, 124, 15)"><g clip-path="url(#1f75a4b4d9)"><g clip-path="url(#70cc6833a4)"><g clip-path="url(#99ba63d165)"><path fill="#f37033" d="M 0.433594 0.59375 L 5.863281 0.59375 L 5.863281 6.019531 L 0.433594 6.019531 Z M 0.433594 0.59375 " fill-opacity="1" fill-rule="nonzero"/></g></g></g></g></g></g></svg>